<svg width="279" height="53" viewBox="0 0 279 53" fill="none" xmlns="http://www.w3.org/2000/svg">
<path d="M178.001 26.5038C177.982 24.4664 178.221 22.4359 178.712 20.4681C179.126 18.7789 179.823 17.1855 180.77 15.7672C181.637 14.4884 182.773 13.4488 184.084 12.733C185.48 11.9966 187.018 11.6282 188.573 11.6582C189.84 11.6329 191.097 11.9171 192.249 12.4893C193.33 13.0525 194.293 13.848 195.078 14.8269V0H202.307V41.2518H195.802L195.453 38.162C194.65 39.2693 193.639 40.1809 192.486 40.8364C191.256 41.496 189.896 41.8227 188.523 41.7881C186.978 41.8178 185.45 41.435 184.075 40.6739C182.772 39.9326 181.642 38.8815 180.772 37.6002C179.83 36.1934 179.133 34.614 178.714 32.9388C178.227 31.0282 177.987 29.054 178.003 27.0726L178.001 26.5038ZM185.207 27.0679C185.2 28.1759 185.292 29.2821 185.48 30.3714C185.635 31.3088 185.933 32.2118 186.364 33.0433C186.747 33.7777 187.295 34.3963 187.958 34.8424C188.687 35.3009 189.52 35.5286 190.363 35.4994C191.383 35.5399 192.393 35.26 193.268 34.6939C194.049 34.1449 194.674 33.3735 195.074 32.4653V20.9974C194.682 20.0801 194.055 19.3021 193.268 18.7548C192.406 18.2014 191.415 17.9267 190.413 17.9632C189.566 17.9353 188.728 18.1629 187.995 18.6202C187.324 19.0669 186.771 19.6911 186.388 20.4333C185.955 21.2799 185.652 22.1963 185.491 23.1471C185.294 24.2531 185.198 25.3775 185.205 26.5038L185.207 27.0679Z" fill="white"/>
<path d="M223.06 19.4651C222.694 19.4117 222.267 19.3629 221.767 19.3165C221.267 19.27 220.84 19.2492 220.459 19.2492C219.275 19.1955 218.097 19.4588 217.031 20.0153C216.175 20.5033 215.493 21.2829 215.091 22.2323V41.2471H207.888V12.1874H214.695L214.893 15.651C215.51 14.4739 216.373 13.467 217.412 12.7096C218.452 11.989 219.667 11.6196 220.903 11.6488C221.308 11.6506 221.713 11.6863 222.114 11.7557C222.463 11.8067 222.809 11.8842 223.148 11.9877L223.06 19.4651Z" fill="white"/>
<path d="M224.493 26.45C224.476 24.4534 224.762 22.4673 225.34 20.5699C225.861 18.8441 226.701 17.2497 227.809 15.8829C228.916 14.5454 230.282 13.4866 231.811 12.7814C233.525 12.0013 235.372 11.617 237.232 11.6533C239.105 11.6165 240.964 12.0006 242.69 12.7814C244.227 13.4856 245.602 14.5443 246.718 15.8829C247.832 17.2474 248.676 18.8423 249.2 20.5699C249.777 22.4673 250.063 24.4534 250.047 26.45V27.0143C250.065 29.0156 249.779 31.0067 249.2 32.9084C248.674 34.6308 247.83 36.2206 246.718 37.5814C245.609 38.9125 244.243 39.9662 242.716 40.6688C239.22 42.1544 235.331 42.1544 231.834 40.6688C230.303 39.9684 228.934 38.9145 227.822 37.5814C226.709 36.2216 225.864 34.6316 225.34 32.9084C224.761 31.0067 224.474 29.0156 224.493 27.0143V26.45ZM231.697 27.0143C231.691 28.132 231.791 29.2474 231.996 30.3431C232.165 31.2973 232.491 32.2115 232.957 33.043C233.384 33.7909 233.977 34.4136 234.681 34.856C235.478 35.3271 236.378 35.5588 237.286 35.5269C238.178 35.5548 239.061 35.323 239.842 34.856C240.543 34.4095 241.134 33.7876 241.566 33.043C242.04 32.2144 242.37 31.2994 242.539 30.3431C242.743 29.2472 242.843 28.1319 242.837 27.0143V26.45C242.841 25.354 242.742 24.2603 242.539 23.1861C242.365 22.227 242.035 21.3083 241.566 20.4723C241.133 19.7091 240.534 19.0715 239.82 18.6152C239.033 18.135 238.139 17.8943 237.234 17.9188C236.339 17.8939 235.455 18.1348 234.679 18.6152C233.971 19.0714 233.378 19.7094 232.955 20.4723C232.493 21.3112 232.168 22.2291 231.994 23.1861C231.79 24.2601 231.69 25.3539 231.694 26.45L231.697 27.0143Z" fill="white"/>
<path d="M278.766 26.9866C278.781 28.9716 278.551 30.9498 278.081 32.8691C277.678 34.548 276.998 36.1349 276.072 37.5538C275.217 38.8462 274.095 39.9078 272.795 40.6553C271.405 41.4297 269.858 41.8176 268.294 41.7835C266.995 41.812 265.707 41.5371 264.516 40.9779C263.437 40.448 262.473 39.6792 261.687 38.7215V52.418H254.486V12.1875H261.165L261.415 15.0336C262.209 13.9912 263.198 13.1408 264.318 12.538C265.545 11.918 266.889 11.6143 268.244 11.6512C269.813 11.6168 271.367 11.9803 272.782 12.7122C274.089 13.4171 275.218 14.4526 276.072 15.73C277.002 17.1418 277.683 18.7259 278.081 20.403C278.556 22.3735 278.786 24.403 278.766 26.4387V26.9866ZM271.562 26.4226C271.569 25.3009 271.473 24.1812 271.276 23.0797C271.112 22.1361 270.804 21.2283 270.364 20.3937C269.976 19.6627 269.423 19.0488 268.757 18.6086C268.026 18.1584 267.193 17.9358 266.352 17.9656C265.343 17.9222 264.341 18.1682 263.45 18.6783C262.681 19.167 262.068 19.8954 261.691 20.7675V32.6648C262.082 33.5312 262.692 34.2617 263.45 34.7727C264.348 35.3224 265.372 35.588 266.404 35.5389C267.248 35.5675 268.083 35.3347 268.809 34.868C269.475 34.4077 270.023 33.7747 270.403 33.027C270.834 32.1756 271.133 31.2543 271.289 30.2993C271.475 29.2097 271.567 28.1039 271.562 26.996V26.4226Z" fill="white"/>
<path d="M77.2381 10.4993V22.6962H65.2244V10.4993H58.7294V42.3573H65.2244V29.0686H77.2381V42.3573H83.7305V10.4993H77.2381ZM40.0801 10.4534L23.5199 42.3573H30.8088L40.8754 22.9695L50.1532 42.3573H57.3432L41.9843 10.4534H40.0801ZM101.685 10.4534L85.1245 42.3573H92.4069L102.475 22.9695L111.751 42.3573H118.941L103.582 10.4534H101.685ZM160.738 10.4534L144.178 42.3573H151.467L161.533 22.9695L170.811 42.3573H178L162.641 10.4534H160.738ZM120.334 10.4087V42.3127H126.828V16.7785H133.044C133.474 16.781 133.899 16.8667 134.295 17.0307C134.691 17.1947 135.05 17.4337 135.352 17.7341C135.653 18.0344 135.892 18.3902 136.053 18.7811C136.214 19.172 136.295 19.5903 136.292 20.0119C136.294 20.4311 136.212 20.8466 136.05 21.2344C135.888 21.6222 135.649 21.9746 135.347 22.271C135.044 22.5674 134.685 22.8019 134.29 22.9611C133.895 23.1203 133.471 23.2008 133.044 23.1981H130.54V29.5692L136.616 42.3573H143.528L137.08 28.7033C138.785 27.9492 140.231 26.7272 141.243 25.1847C142.256 23.6423 142.792 21.8453 142.787 20.0106C142.789 17.4708 141.764 15.0338 139.938 13.2337C138.112 11.4336 135.633 10.4172 133.044 10.4074L120.334 10.4087ZM4.54649 13.139C3.71135 14.0028 3.06954 15.0285 2.66225 16.1501C2.25497 17.2717 2.09121 18.4645 2.18148 19.6519C2.21886 21.0952 2.61954 22.5071 3.34785 23.7617C4.07615 25.0164 5.10946 26.0749 6.35571 26.8428C7.86477 27.7837 9.52848 28.4611 11.2731 28.8451L11.5061 28.8911L11.6441 28.9371C15.0282 30.0749 17.0249 31.6674 17.0249 33.3965C16.9549 34.2778 16.5479 35.1006 15.8855 35.6998C15.2231 36.299 14.3543 36.6303 13.4533 36.6273C11.8208 36.686 10.1948 36.3948 8.68869 35.774C7.18257 35.1531 5.83253 34.2176 4.73261 33.0325L0 37.4012C2.1135 39.6399 4.78283 41.3022 7.74711 42.2258C9.59897 42.7625 11.5225 43.0229 13.4533 42.9984C14.8644 43.0071 16.261 42.7193 17.5492 42.1543C18.8374 41.5893 19.9874 40.7602 20.9219 39.7228C22.5377 37.9909 23.46 35.7437 23.5186 33.3965C23.4981 31.0767 22.5872 28.8496 20.9674 27.1594C18.963 25.1888 16.4931 23.735 13.7774 22.9274C13.4989 22.8368 13.2203 22.7461 12.8494 22.6554C9.88043 21.9275 8.72201 21.017 8.67515 19.3773C8.62585 19.0525 8.65009 18.7211 8.74615 18.4065C8.84221 18.092 9.00773 17.8022 9.23093 17.5575C10.0349 16.8695 11.0438 16.4543 12.1075 16.3737C14.3879 16.379 16.5977 17.15 18.3694 18.5587L19.5305 19.2853L22.9146 13.8695L21.8486 13.1862C19.0413 11.1118 15.6206 9.99308 12.1062 10C9.27267 10.078 6.5729 11.1995 4.54387 13.1415" fill="white"/>
</svg>
