<svg width="293" height="51" viewBox="0 0 293 51" fill="none" xmlns="http://www.w3.org/2000/svg">
<path d="M85.1084 14.4985V28.1969H71.8705V14.4985H64.7137V50.2782H71.8705V35.3536H85.1084V50.2782H92.2623V14.4985H85.1084ZM44.1641 14.447L25.9164 50.2782H33.9481L45.0404 28.5038L55.2636 50.2782H63.1862L46.2624 14.447H44.1641ZM112.046 14.447L93.7983 50.2782H101.823L112.917 28.5038L123.138 50.2782H131.061L114.137 14.447H112.046ZM177.117 14.447L158.869 50.2782H166.901L177.993 28.5038L188.216 50.2782H196.137L179.214 14.447H177.117ZM132.596 14.3967V50.228H139.751V21.5507H146.601C147.074 21.5535 147.543 21.6498 147.979 21.8339C148.415 22.018 148.811 22.2865 149.144 22.6238C149.476 22.9612 149.739 23.3607 149.916 23.7997C150.094 24.2387 150.183 24.7086 150.179 25.1821C150.182 25.6529 150.092 26.1196 149.913 26.5551C149.734 26.9906 149.471 27.3864 149.138 27.7193C148.805 28.0522 148.409 28.3156 147.974 28.4943C147.538 28.6731 147.072 28.7636 146.601 28.7605H143.841V35.9159L150.536 50.2782H158.153L151.048 34.9434C152.927 34.0964 154.52 32.724 155.635 30.9917C156.751 29.2594 157.342 27.2412 157.336 25.1807C157.338 22.3282 156.21 19.5912 154.197 17.5695C152.185 15.5478 149.453 14.4064 146.601 14.3953L132.596 14.3967ZM5.00975 17.4631C4.08952 18.4333 3.38231 19.5852 2.93352 20.8449C2.48474 22.1046 2.30429 23.4442 2.40377 24.7777C2.44495 26.3988 2.88646 27.9844 3.68898 29.3935C4.49149 30.8026 5.63009 31.9914 7.00333 32.8538C8.66615 33.9106 10.4994 34.6714 12.4218 35.1027L12.6786 35.1543L12.8306 35.206C16.5596 36.4839 18.7597 38.2723 18.7597 40.2143C18.6826 41.2041 18.2341 42.1281 17.5042 42.8011C16.7743 43.4741 15.8169 43.8462 14.8241 43.8428C13.0252 43.9088 11.2336 43.5817 9.57403 42.8845C7.91445 42.1872 6.42684 41.1364 5.21485 39.8055L0 44.712C2.32885 47.2262 5.27018 49.0932 8.53651 50.1305C10.5771 50.7333 12.6966 51.0257 14.8241 50.9982C16.379 51.008 17.9179 50.6847 19.3374 50.0502C20.7569 49.4156 22.0241 48.4845 23.0537 47.3194C24.8342 45.3742 25.8505 42.8505 25.915 40.2143C25.8925 37.6089 24.8887 35.1077 23.1039 33.2095C20.8953 30.9962 18.1736 29.3635 15.1813 28.4565C14.8743 28.3547 14.5674 28.2528 14.1587 28.151C10.8872 27.3335 9.61074 26.3109 9.55911 24.4693C9.50479 24.1046 9.5315 23.7324 9.63735 23.3791C9.7432 23.0259 9.92558 22.7003 10.1715 22.4256C11.0575 21.6528 12.1691 21.1865 13.3412 21.096C15.854 21.1019 18.289 21.9679 20.2412 23.55L21.5205 24.366L25.2495 18.2835L24.0749 17.5162C20.9816 15.1864 17.2123 13.93 13.3397 13.9378C10.2175 14.0253 7.24265 15.2849 5.00688 17.466" fill="white"/>
<path d="M243.899 7.36355C240.316 10.8576 237.93 15.3944 237.08 20.326H223.742C223.123 20.3011 222.505 20.4027 221.927 20.6246C221.348 20.8466 220.821 21.1842 220.377 21.6169C219.946 22.0608 219.609 22.5882 219.388 23.1667C219.168 23.7453 219.067 24.3629 219.094 24.9816C219.069 25.6052 219.171 26.2273 219.391 26.8112C219.611 27.3951 219.947 27.9288 220.377 28.3807C220.816 28.822 221.342 29.1672 221.921 29.3944C222.5 29.6215 223.12 29.7256 223.742 29.7001H233.178C234.506 30.0769 235.861 30.3465 237.232 30.5062C240.387 30.7335 243.55 30.2058 246.461 28.9669C249.371 27.7281 251.944 25.8137 253.967 23.3823C254.526 22.705 255.037 21.9895 255.496 21.2411L244.504 12.0621L271.413 9.50622C271.968 9.47179 272.515 9.64953 272.944 10.0034C273.372 10.3573 273.651 10.861 273.722 11.4124L276.199 38.3255L265.847 29.7417C262.188 33.1934 257.54 35.4123 252.556 36.0867C247.572 36.7612 242.501 35.8575 238.057 33.5023C236.627 32.7398 235.277 31.8355 234.028 30.803C233.715 30.5162 233.402 30.2294 233.09 29.9425C232.111 32.9929 230.185 35.6519 227.593 37.5338C224.937 39.5067 221.708 40.5546 218.4 40.5171C216.357 40.5614 214.328 40.1861 212.436 39.4144C210.545 38.6428 208.832 37.4911 207.403 36.0308C205.945 34.5965 204.796 32.879 204.027 30.984C203.257 29.089 202.883 27.0565 202.929 25.0117C202.876 22.9627 203.244 20.9248 204.008 19.0231C204.773 17.1215 205.919 15.3963 207.375 13.9538C208.812 12.4978 210.532 11.3521 212.429 10.5873C214.326 9.82258 216.36 9.45514 218.405 9.50771C220.6 9.458 222.779 9.89757 224.783 10.7946C226.787 11.6917 228.566 13.0236 229.991 14.6938C230.402 15.2036 230.919 15.6179 231.506 15.9084C232.093 16.1989 232.735 16.3585 233.39 16.3762C234.024 16.3788 234.652 16.253 235.237 16.0065C235.821 15.7601 236.35 15.398 236.791 14.942C237.254 14.5104 237.623 13.987 237.873 13.4053C238.124 12.8237 238.251 12.1963 238.246 11.5629C238.211 10.411 237.741 9.31517 236.93 8.49656C234.647 5.82637 231.803 3.69258 228.6 2.2473C225.398 0.802014 221.917 0.080787 218.404 0.135C215.129 0.0705994 211.875 0.678758 208.844 1.92183C205.813 3.1649 203.07 5.01646 200.783 7.36206C198.44 9.65444 196.591 12.4022 195.35 15.4361C194.108 18.4699 193.501 21.7257 193.566 25.003C193.501 28.2803 194.108 31.5362 195.35 34.5701C196.591 37.6039 198.44 40.3517 200.783 42.6441C203.07 44.9894 205.814 46.8407 208.844 48.0835C211.875 49.3263 215.129 49.9342 218.404 49.8696C221.678 49.9348 224.931 49.3282 227.962 48.0872C230.992 46.8461 233.737 44.997 236.025 42.654C237.549 41.142 238.874 39.4411 239.967 37.5927C241.059 39.4365 242.38 41.134 243.9 42.6441C246.186 44.9916 248.929 46.8451 251.959 48.0902C254.99 49.3352 258.244 49.9453 261.519 49.8826C264.795 49.9474 268.049 49.3395 271.08 48.0967C274.111 46.8539 276.855 45.0024 279.142 42.6569C281.485 40.3644 283.333 37.6166 284.574 34.5828C285.815 31.5489 286.422 28.2932 286.357 25.016C286.422 21.7388 285.815 18.483 284.574 15.4492C283.333 12.4153 281.484 9.66762 279.142 7.37502C276.855 5.02965 274.111 3.17818 271.08 1.93513C268.049 0.692088 264.795 0.083869 261.519 0.147956C258.244 0.083555 254.991 0.691626 251.96 1.9347C248.929 3.17777 246.185 5.02942 243.899 7.37502" fill="white"/>
<path d="M285.907 7.88246C285.327 7.56117 284.849 7.08245 284.529 6.50137C284.204 5.93356 284.034 5.29071 284.035 4.63681C284.037 3.97718 284.211 3.32939 284.54 2.75798C284.861 2.1762 285.342 1.69849 285.926 1.38118C286.487 1.06932 287.119 0.904985 287.762 0.903569C288.405 0.905062 289.037 1.06937 289.6 1.38118C290.185 1.69799 290.667 2.17576 290.989 2.75798C291.319 3.32916 291.493 3.9771 291.493 4.63681C291.493 5.29095 291.322 5.93379 290.997 6.50137C290.676 7.08166 290.198 7.56011 289.619 7.88246C289.052 8.20958 288.409 8.38133 287.754 8.3802C287.103 8.37903 286.464 8.20738 285.9 7.88246H285.907ZM285.46 0.596661C284.733 0.990432 284.136 1.58488 283.739 2.30908C283.33 3.01862 283.113 3.82245 283.11 4.64119C283.111 5.45285 283.324 6.25022 283.727 6.95456C284.127 7.67923 284.723 8.27595 285.448 8.67565C286.152 9.07796 286.948 9.28996 287.759 9.29086C288.57 9.29019 289.367 9.0782 290.072 8.67565C290.796 8.27525 291.393 7.67871 291.793 6.95456C292.196 6.24991 292.408 5.45266 292.408 4.64119C292.407 3.82242 292.191 3.0183 291.782 2.30908C291.384 1.58542 290.786 0.991151 290.061 0.596661C289.359 0.205767 288.569 0.000386121 287.766 5.18807e-07C286.962 -0.000376789 286.172 0.205053 285.471 0.596661" fill="white"/>
<path d="M286.66 2.97883H287.066C287.425 2.96143 287.785 2.98503 288.139 3.04912C288.272 3.08746 288.39 3.168 288.474 3.27865C288.553 3.38431 288.594 3.51277 288.592 3.64429C288.594 3.78047 288.552 3.91373 288.473 4.02439C288.391 4.1358 288.275 4.217 288.142 4.25531C287.787 4.31851 287.426 4.34156 287.066 4.32412H286.66V2.97883ZM285.656 2.1972V7.12516H286.66V5.10005H286.921C287.168 5.08981 287.411 5.16363 287.611 5.30945C287.902 5.60245 288.137 5.9467 288.304 6.32489L288.715 7.12516H289.952L289.371 6.13125C289.164 5.77843 289.044 5.5805 289.008 5.5303C288.91 5.39264 288.797 5.26576 288.672 5.1517C288.568 5.07201 288.452 5.00909 288.328 4.96525C288.7 4.92964 289.047 4.7641 289.309 4.4977C289.538 4.24999 289.662 3.92294 289.655 3.58556C289.658 3.33818 289.594 3.09454 289.471 2.87991C289.363 2.68248 289.204 2.51831 289.009 2.40519C288.768 2.28718 288.506 2.22025 288.238 2.20867C288.124 2.20006 287.598 2.1958 286.66 2.1958L285.656 2.1972Z" fill="white"/>
</svg>
