<svg width="257" height="48" viewBox="0 0 257 48" fill="none" xmlns="http://www.w3.org/2000/svg">
<path d="M187.007 23.7197V36.6368H180V0.00208888H193.265C195.094 -0.0285443 196.914 0.277946 198.647 0.908469C200.131 1.45113 201.498 2.31143 202.665 3.43756C203.755 4.50748 204.612 5.82282 205.177 7.29006C205.761 8.82704 206.054 10.4743 206.039 12.1351C206.062 13.7842 205.769 15.4206 205.177 16.9416C204.612 18.3495 203.752 19.5975 202.665 20.5878C201.483 21.6432 200.117 22.4343 198.647 22.9151C196.903 23.4862 195.087 23.7622 193.265 23.7333L187.007 23.7197ZM187.007 17.601H193.265C194.14 17.6209 195.012 17.4854 195.846 17.1999C196.507 16.9727 197.113 16.5904 197.621 16.0804C198.081 15.6009 198.429 15.0106 198.637 14.3581C198.859 13.6533 198.969 12.9134 198.963 12.1691C198.965 11.3963 198.855 10.628 198.637 9.89163C198.427 9.17687 198.081 8.51695 197.621 7.95397C197.13 7.36823 196.523 6.90831 195.846 6.60789C195.026 6.25292 194.148 6.08177 193.265 6.10484H187.007V17.601Z" fill="white"/>
<path d="M224.792 36.6344C224.447 35.8646 224.219 35.0407 224.114 34.1937C223.381 35.056 222.506 35.7644 221.533 36.2831C220.352 36.886 219.054 37.1789 217.747 37.1374C216.59 37.1487 215.44 36.9448 214.348 36.5347C213.346 36.1636 212.418 35.5915 211.613 34.8486C210.849 34.1354 210.232 33.2567 209.804 32.2697C209.362 31.2413 209.139 30.1195 209.15 28.9861C209.127 27.6766 209.379 26.3783 209.886 25.188C210.39 24.0632 211.149 23.0936 212.093 22.3688C213.197 21.538 214.438 20.9406 215.749 20.6081C217.412 20.1806 219.119 19.9781 220.829 20.0053H223.843V18.4462C223.893 17.3556 223.573 16.2825 222.943 15.4276C222.577 15.0242 222.132 14.7134 221.641 14.5175C221.15 14.3216 220.625 14.2454 220.103 14.2945C219.142 14.2335 218.194 14.5463 217.429 15.176C217.108 15.4719 216.853 15.8433 216.685 16.2617C216.517 16.68 216.44 17.1342 216.46 17.5895H209.71C209.708 16.4246 209.97 15.2769 210.471 14.2447C210.996 13.1641 211.733 12.2198 212.631 11.4778C213.649 10.6425 214.795 10.0073 216.018 9.60137C217.455 9.12269 218.952 8.88949 220.456 8.9102C221.83 8.89674 223.199 9.09981 224.518 9.51298C225.693 9.87514 226.788 10.486 227.741 11.31C228.651 12.1181 229.375 13.143 229.855 14.3037C230.384 15.6255 230.643 17.0546 230.614 18.4938V30.0171C230.614 30.7906 230.637 31.4826 230.683 32.0929C230.73 32.7033 230.792 33.2578 230.871 33.7563C230.939 34.2084 231.04 34.654 231.174 35.0889C231.295 35.4737 231.443 35.8479 231.617 36.2082V36.6344H224.792ZM219.209 31.5786C220.232 31.5876 221.239 31.3053 222.129 30.7604C222.501 30.5299 222.842 30.2456 223.142 29.9152C223.412 29.6231 223.645 29.2931 223.832 28.934V24.2543H221.054C220.272 24.2392 219.493 24.3452 218.74 24.5693C218.153 24.7415 217.604 25.0414 217.129 25.4508C216.722 25.8075 216.402 26.2647 216.195 26.7833C215.988 27.3132 215.884 27.8832 215.89 28.458C215.879 28.8782 215.952 29.2959 216.105 29.6824C216.259 30.0689 216.488 30.415 216.777 30.6969C217.453 31.3182 218.325 31.6342 219.211 31.5786H219.209Z" fill="white"/>
<path d="M244.876 26.3461L249.548 9.41124H256.788L246.674 40.7114C246.41 41.474 246.11 42.2212 245.774 42.9503C245.393 43.7805 244.892 44.5408 244.291 45.2029C243.626 45.9305 242.841 46.519 241.977 46.9388C240.909 47.4324 239.754 47.6683 238.593 47.63C238.281 47.63 237.999 47.6187 237.751 47.5937C237.503 47.5688 237.261 47.5393 237.028 47.5053C236.796 47.4716 236.565 47.4246 236.338 47.3648C236.113 47.3059 235.866 47.2357 235.601 47.1518V41.6359C235.772 41.6359 235.949 41.6359 236.127 41.6473C236.306 41.6586 236.474 41.6608 236.628 41.6608C237.205 41.6696 237.78 41.6142 238.346 41.4954C238.782 41.4035 239.198 41.2244 239.573 40.9675C239.914 40.726 240.207 40.4139 240.435 40.0496C240.688 39.6419 240.892 39.2019 241.043 38.7397L241.767 36.7003L232.915 9.3999H240.179L244.876 26.3461Z" fill="white"/>
<path d="M77.2381 4.49934V16.6962H65.2244V4.49934H58.7294V36.3573H65.2244V23.0686H77.2381V36.3573H83.7305V4.49934H77.2381ZM40.0801 4.45343L23.5199 36.3573H30.8088L40.8754 16.9695L50.1532 36.3573H57.3432L41.9843 4.45343H40.0801ZM101.685 4.45343L85.1245 36.3573H92.4069L102.475 16.9695L111.751 36.3573H118.941L103.582 4.45343H101.685ZM160.738 4.45343L144.178 36.3573H151.467L161.533 16.9695L170.811 36.3573H178L162.641 4.45343H160.738ZM120.334 4.40869V36.3127H126.828V10.7785H133.044C133.474 10.781 133.899 10.8667 134.295 11.0307C134.691 11.1947 135.05 11.4337 135.352 11.7341C135.653 12.0344 135.892 12.3902 136.053 12.7811C136.214 13.172 136.295 13.5903 136.292 14.0119C136.294 14.4311 136.212 14.8466 136.05 15.2344C135.888 15.6222 135.649 15.9746 135.347 16.271C135.044 16.5674 134.685 16.8019 134.29 16.9611C133.895 17.1203 133.471 17.2008 133.044 17.1981H130.54V23.5692L136.616 36.3573H143.528L137.08 22.7033C138.785 21.9492 140.231 20.7272 141.243 19.1847C142.256 17.6423 142.792 15.8453 142.787 14.0106C142.789 11.4708 141.764 9.03379 139.938 7.23367C138.112 5.43356 135.633 4.41724 133.044 4.40744L120.334 4.40869ZM4.54649 7.13897C3.71135 8.00285 3.06954 9.02849 2.66225 10.1501C2.25497 11.2717 2.09121 12.4645 2.18148 13.6519C2.21886 15.0952 2.61954 16.5071 3.34785 17.7617C4.07615 19.0164 5.10946 20.0749 6.35571 20.8428C7.86477 21.7837 9.52848 22.4611 11.2731 22.8451L11.5061 22.8911L11.6441 22.9371C15.0282 24.0749 17.0249 25.6674 17.0249 27.3965C16.9549 28.2778 16.5479 29.1006 15.8855 29.6998C15.2231 30.299 14.3543 30.6303 13.4533 30.6273C11.8208 30.686 10.1948 30.3948 8.68869 29.774C7.18257 29.1531 5.83253 28.2176 4.73261 27.0325L0 31.4012C2.1135 33.6399 4.78283 35.3022 7.74711 36.2258C9.59897 36.7625 11.5225 37.0229 13.4533 36.9984C14.8644 37.0071 16.261 36.7193 17.5492 36.1543C18.8374 35.5893 19.9874 34.7602 20.9219 33.7228C22.5377 31.9909 23.46 29.7437 23.5186 27.3965C23.4981 25.0767 22.5872 22.8496 20.9674 21.1594C18.963 19.1888 16.4931 17.735 13.7774 16.9274C13.4989 16.8368 13.2203 16.7461 12.8494 16.6554C9.88043 15.9275 8.72201 15.017 8.67515 13.3773C8.62585 13.0525 8.65009 12.7211 8.74615 12.4065C8.84221 12.092 9.00773 11.8022 9.23093 11.5575C10.0349 10.8695 11.0438 10.4543 12.1075 10.3737C14.3879 10.379 16.5977 11.15 18.3694 12.5587L19.5305 13.2853L22.9146 7.86946L21.8486 7.18621C19.0413 5.11178 15.6206 3.99308 12.1062 4.00003C9.27267 4.07796 6.5729 5.19951 4.54387 7.14154" fill="white"/>
</svg>
