<svg width="204" height="36" viewBox="0 0 204 36" fill="none" xmlns="http://www.w3.org/2000/svg">
<path d="M59.341 10.109V19.66H50.111V10.109H45.121V35.056H50.111V24.65H59.341V35.056H64.329V10.109H59.341ZM30.793 10.073L18.07 35.056H23.67L31.404 19.874L38.532 35.056H44.056L32.256 10.073H30.793ZM78.123 10.073L65.4 35.056H70.995L78.73 19.874L85.857 35.056H91.381L79.581 10.073H78.123ZM123.493 10.073L110.77 35.056H116.37L124.104 19.874L131.232 35.056H136.755L124.955 10.073H123.493ZM92.451 10.038V35.021H97.44V15.026H102.216C102.546 15.028 102.873 15.0951 103.177 15.2235C103.481 15.3519 103.757 15.539 103.989 15.7743C104.221 16.0095 104.404 16.288 104.528 16.5941C104.652 16.9002 104.714 17.2278 104.711 17.558C104.713 17.8863 104.65 18.2116 104.525 18.5153C104.401 18.819 104.217 19.0949 103.985 19.327C103.753 19.5591 103.477 19.7428 103.173 19.8674C102.87 19.992 102.544 20.0551 102.216 20.053H100.292V25.042L104.96 35.056H110.271L105.317 24.364C106.627 23.7734 107.737 22.8165 108.515 21.6087C109.293 20.4008 109.705 18.9936 109.701 17.557C109.703 15.5681 108.916 13.6598 107.513 12.2501C106.11 10.8405 104.205 10.0447 102.216 10.037L92.451 10.038ZM3.493 12.176C2.85138 12.8525 2.35828 13.6556 2.04537 14.5339C1.73246 15.4122 1.60664 16.3462 1.676 17.276C1.70472 18.4063 2.01256 19.5119 2.57211 20.4943C3.13165 21.4768 3.92553 22.3057 4.883 22.907C6.04239 23.6438 7.32061 24.1743 8.661 24.475L8.84 24.511L8.946 24.547C11.546 25.438 13.08 26.685 13.08 28.039C13.0263 28.7292 12.7136 29.3734 12.2046 29.8427C11.6957 30.3119 11.0282 30.5713 10.336 30.569C9.08173 30.615 7.83253 30.3869 6.6754 29.9008C5.51827 29.4146 4.48106 28.682 3.636 27.754L0 31.175C1.62377 32.928 3.67459 34.2298 5.952 34.953C7.37476 35.3733 8.8526 35.5772 10.336 35.558C11.4201 35.5648 12.4931 35.3394 13.4828 34.897C14.4726 34.4546 15.3561 33.8054 16.074 32.993C17.3154 31.6368 18.024 29.8771 18.069 28.039C18.0533 26.2224 17.3534 24.4785 16.109 23.155C14.569 21.6118 12.6714 20.4734 10.585 19.841C10.371 19.77 10.157 19.699 9.872 19.628C7.591 19.058 6.701 18.345 6.665 17.061C6.62712 16.8067 6.64575 16.5472 6.71955 16.3009C6.79335 16.0546 6.92052 15.8276 7.092 15.636C7.7097 15.0972 8.48477 14.7721 9.302 14.709C11.054 14.7131 12.7518 15.3169 14.113 16.42L15.005 16.989L17.605 12.748L16.786 12.213C14.6292 10.5886 12.0011 9.71254 9.301 9.71798C7.12407 9.779 5.04987 10.6573 3.491 12.178" fill="#009E3C"/>
<path d="M170.056 5.13403C167.558 7.57021 165.894 10.7335 165.302 14.172H156.002C155.57 14.1546 155.14 14.2254 154.736 14.3802C154.333 14.5349 153.965 14.7704 153.656 15.072C153.355 15.3815 153.12 15.7492 152.966 16.1526C152.813 16.556 152.743 16.9867 152.761 17.418C152.744 17.8528 152.815 18.2866 152.968 18.6937C153.122 19.1008 153.356 19.4729 153.656 19.788C153.962 20.0957 154.328 20.3364 154.732 20.4948C155.136 20.6532 155.569 20.7258 156.002 20.708H162.581C163.507 20.9707 164.452 21.1586 165.408 21.27C167.608 21.4285 169.813 21.0605 171.842 20.1968C173.871 19.333 175.666 17.9982 177.076 16.303C177.466 15.8307 177.822 15.3318 178.142 14.81L170.478 8.41003L189.24 6.62798C189.627 6.60398 190.008 6.7279 190.307 6.97466C190.606 7.22142 190.8 7.57261 190.85 7.95702L192.577 26.722L185.359 20.737C182.808 23.1436 179.568 24.6907 176.092 25.161C172.617 25.6313 169.082 25.0011 165.983 23.359C164.986 22.8274 164.045 22.1969 163.174 21.477C162.955 21.277 162.737 21.077 162.52 20.877C161.837 23.0038 160.495 24.8578 158.687 26.17C156.835 27.5455 154.584 28.2761 152.277 28.25C150.853 28.2809 149.438 28.0192 148.119 27.4812C146.8 26.9432 145.606 26.1402 144.61 25.122C143.593 24.1219 142.792 22.9244 142.256 21.6031C141.719 20.2819 141.458 18.8647 141.49 17.439C141.454 16.0104 141.71 14.5894 142.243 13.2635C142.776 11.9376 143.575 10.7348 144.59 9.729C145.592 8.71383 146.791 7.91497 148.114 7.38177C149.437 6.84856 150.855 6.59236 152.281 6.62902C153.811 6.59436 155.33 6.90084 156.728 7.5263C158.125 8.15175 159.365 9.08045 160.359 10.245C160.646 10.6004 161.006 10.8893 161.415 11.0919C161.824 11.2944 162.273 11.4057 162.729 11.418C163.171 11.4198 163.609 11.3321 164.017 11.1603C164.424 10.9884 164.793 10.736 165.1 10.418C165.423 10.1171 165.68 9.75219 165.855 9.34661C166.03 8.94104 166.118 8.5036 166.115 8.062C166.091 7.25883 165.763 6.49478 165.197 5.924C163.605 4.06224 161.622 2.57447 159.389 1.56677C157.157 0.559056 154.729 0.0561872 152.28 0.0939869C149.996 0.049084 147.728 0.473117 145.615 1.33984C143.501 2.20656 141.588 3.49754 139.994 5.13299C138.36 6.73133 137.071 8.64716 136.206 10.7625C135.34 12.8778 134.917 15.1479 134.962 17.433C134.917 19.718 135.34 21.9882 136.206 24.1035C137.071 26.2188 138.36 28.1347 139.994 29.733C141.589 31.3683 143.502 32.6591 145.615 33.5256C147.728 34.3922 149.996 34.816 152.28 34.771C154.563 34.8165 156.831 34.3935 158.944 33.5282C161.057 32.6629 162.971 31.3736 164.566 29.74C165.629 28.6857 166.553 27.4998 167.315 26.211C168.076 27.4966 168.997 28.6802 170.057 29.733C171.651 31.3698 173.563 32.6622 175.676 33.5303C177.789 34.3984 180.058 34.8238 182.342 34.78C184.626 34.8252 186.894 34.4014 189.008 33.5348C191.121 32.6683 193.034 31.3774 194.629 29.742C196.262 28.1435 197.551 26.2277 198.417 24.1124C199.282 21.997 199.705 19.727 199.66 17.442C199.705 15.157 199.282 12.887 198.417 10.7717C197.551 8.65634 196.262 6.74052 194.629 5.14202C193.034 3.50674 191.121 2.21582 189.008 1.34911C186.894 0.482411 184.626 0.0583362 182.342 0.10302C180.058 0.0581172 177.79 0.482089 175.677 1.34881C173.563 2.21553 171.65 3.50657 170.056 5.14202" fill="#009E3C"/>
<path d="M199.346 5.49597C198.941 5.27196 198.608 4.93817 198.385 4.53302C198.159 4.13712 198.04 3.6889 198.041 3.23297C198.042 2.77305 198.163 2.32139 198.393 1.92297C198.617 1.51734 198.952 1.18426 199.359 0.963013C199.751 0.745571 200.191 0.630992 200.639 0.630005C201.088 0.631046 201.529 0.745611 201.921 0.963013C202.329 1.18391 202.665 1.51703 202.889 1.92297C203.119 2.32122 203.241 2.77299 203.241 3.23297C203.241 3.68906 203.122 4.13728 202.895 4.53302C202.671 4.93762 202.338 5.27122 201.934 5.49597C201.539 5.72406 201.09 5.8438 200.634 5.84302C200.18 5.8422 199.734 5.72252 199.341 5.49597H199.346ZM199.034 0.416016C198.528 0.690569 198.111 1.10504 197.834 1.60999C197.549 2.1047 197.398 2.66517 197.396 3.23602C197.397 3.80195 197.545 4.35791 197.826 4.849C198.105 5.35427 198.521 5.77032 199.026 6.04901C199.517 6.32952 200.072 6.47734 200.637 6.47797C201.203 6.4775 201.759 6.32969 202.25 6.04901C202.755 5.76984 203.171 5.35391 203.45 4.849C203.731 4.35769 203.878 3.80181 203.879 3.23602C203.878 2.66515 203.727 2.10448 203.442 1.60999C203.164 1.10542 202.748 0.691071 202.242 0.416016C201.753 0.143469 201.202 0.000269219 200.642 3.61733e-07C200.082 -0.000262713 199.531 0.142971 199.042 0.416016" fill="#009E3C"/>
<path d="M199.871 2.07697H200.154C200.404 2.06484 200.655 2.08129 200.902 2.12598C200.995 2.15271 201.077 2.20886 201.136 2.28601C201.191 2.35968 201.219 2.44925 201.218 2.54095C201.219 2.6359 201.19 2.72881 201.135 2.80597C201.078 2.88365 200.997 2.94027 200.904 2.96698C200.657 3.01104 200.405 3.02712 200.154 3.01495H199.871V2.07697ZM199.171 1.53198V4.96796H199.871V3.55597H200.053C200.225 3.54883 200.395 3.60029 200.534 3.70197C200.737 3.90626 200.901 4.14628 201.017 4.40997L201.304 4.96796H202.166L201.761 4.27496C201.617 4.02896 201.533 3.89096 201.508 3.85596C201.44 3.75997 201.361 3.67151 201.274 3.59198C201.201 3.53641 201.12 3.49255 201.034 3.46198C201.293 3.43715 201.535 3.32173 201.718 3.13599C201.878 2.96327 201.964 2.73523 201.959 2.5C201.961 2.32752 201.917 2.15764 201.831 2.008C201.756 1.87034 201.645 1.75588 201.509 1.677C201.341 1.59472 201.158 1.54805 200.971 1.53998C200.892 1.53398 200.525 1.53101 199.871 1.53101L199.171 1.53198Z" fill="#009E3C"/>
</svg>
