<svg width="24" height="21" viewBox="0 0 24 21" fill="none" xmlns="http://www.w3.org/2000/svg">
<path d="M14.1153 2.95139L14.1157 2.95169L20.3644 7.74576C20.3647 7.74596 20.365 7.74617 20.3652 7.74637C21.0996 8.3137 21.5 9.12443 21.5 9.96624V15.8375C21.5 17.3995 20.089 18.75 18.25 18.75H15V15.05C15 14.1532 14.1913 13.535 13.34 13.535H10.66C9.80272 13.535 9.01 14.1585 9.01 15.05V18.75H5.75C3.91096 18.75 2.5 17.3995 2.5 15.8375V9.96624C2.5 9.12741 2.90797 8.31495 3.63614 7.74531L9.88337 2.95244C9.88352 2.95233 9.88367 2.95221 9.88381 2.9521C11.1153 2.01244 12.8957 2.01387 14.1153 2.95139Z" stroke="black"/>
</svg>
