<svg width="205" height="37" viewBox="0 0 205 37" fill="none" xmlns="http://www.w3.org/2000/svg">
<path d="M59.9789 10.827V20.378H50.7489V10.827H45.7589V35.774H50.7489V25.368H59.9789V35.774H64.9669V10.827H59.9789ZM31.4309 10.791L18.7079 35.774H24.3079L32.0419 20.592L39.1699 35.774H44.6939L32.8939 10.791H31.4309ZM78.7609 10.791L66.0379 35.774H71.6329L79.3679 20.592L86.4949 35.774H92.0189L80.2189 10.791H78.7609ZM124.131 10.791L111.408 35.774H117.008L124.742 20.592L131.87 35.774H137.393L125.593 10.791H124.131ZM93.0889 10.756V35.739H98.0779V15.744H102.854C103.184 15.746 103.511 15.8131 103.815 15.9415C104.119 16.0699 104.395 16.257 104.627 16.4922C104.859 16.7275 105.042 17.006 105.166 17.3121C105.29 17.6182 105.352 17.9458 105.349 18.276C105.351 18.6042 105.288 18.9296 105.163 19.2333C105.039 19.5369 104.855 19.8129 104.623 20.045C104.391 20.2771 104.115 20.4607 103.811 20.5854C103.508 20.71 103.182 20.7731 102.854 20.771H100.93V25.76L105.598 35.774H110.909L105.955 25.082C107.265 24.4914 108.375 23.5345 109.153 22.3267C109.931 21.1188 110.343 19.7116 110.339 18.275C110.341 16.2861 109.554 14.3777 108.151 12.9681C106.747 11.5585 104.843 10.7627 102.854 10.755L93.0889 10.756ZM4.13094 12.894C3.48932 13.5705 2.99622 14.3736 2.68331 15.2519C2.3704 16.1302 2.24458 17.0642 2.31394 17.994C2.34266 19.1243 2.6505 20.2299 3.21004 21.2123C3.76959 22.1948 4.56347 23.0237 5.52094 23.625C6.68033 24.3618 7.95855 24.8923 9.29894 25.193L9.47794 25.229L9.58394 25.265C12.1839 26.156 13.7179 27.403 13.7179 28.757C13.6642 29.4471 13.3515 30.0914 12.8426 30.5607C12.3337 31.0299 11.6662 31.2893 10.9739 31.287C9.71967 31.333 8.47047 31.1049 7.31334 30.6188C6.15621 30.1326 5.119 29.4 4.27394 28.472L0.637939 31.893C2.26171 33.646 4.31253 34.9478 6.58994 35.671C8.0127 36.0913 9.49054 36.2952 10.9739 36.276C12.058 36.2828 13.131 36.0574 14.1208 35.615C15.1105 35.1726 15.994 34.5233 16.7119 33.711C17.9533 32.3547 18.662 30.5951 18.7069 28.757C18.6912 26.9404 17.9914 25.1965 16.7469 23.873C15.207 22.3298 13.3093 21.1914 11.2229 20.559C11.0089 20.488 10.7949 20.417 10.5099 20.346C8.22894 19.776 7.33894 19.063 7.30294 17.779C7.26506 17.5247 7.28369 17.2651 7.35749 17.0189C7.43129 16.7726 7.55846 16.5456 7.72994 16.354C8.34764 15.8152 9.12271 15.4901 9.93994 15.427C11.692 15.4311 13.3898 16.0349 14.7509 17.138L15.6429 17.707L18.2429 13.466L17.4239 12.931C15.2671 11.3065 12.639 10.4305 9.93894 10.436C7.76201 10.497 5.68781 11.3752 4.12894 12.896" fill="white"/>
<path d="M170.694 5.85197C168.196 8.28815 166.532 11.4514 165.94 14.8899H156.64C156.208 14.8725 155.778 14.9434 155.374 15.0981C154.971 15.2529 154.603 15.4883 154.294 15.79C153.993 16.0995 153.758 16.4672 153.604 16.8706C153.45 17.274 153.381 17.7046 153.399 18.136C153.382 18.5708 153.452 19.0046 153.606 19.4117C153.76 19.8187 153.994 20.1909 154.294 20.506C154.6 20.8137 154.966 21.0544 155.37 21.2127C155.774 21.3711 156.206 21.4437 156.64 21.4259H163.219C164.145 21.6886 165.09 21.8766 166.046 21.988C168.245 22.1464 170.451 21.7785 172.48 20.9147C174.509 20.0509 176.303 18.7162 177.714 17.0209C178.104 16.5486 178.46 16.0498 178.78 15.5279L171.116 9.12797L189.878 7.34592C190.265 7.32192 190.646 7.44585 190.945 7.6926C191.244 7.93936 191.438 8.29055 191.488 8.67497L193.215 27.4399L185.997 21.4549C183.446 23.8616 180.205 25.4087 176.73 25.8789C173.255 26.3492 169.72 25.7191 166.621 24.0769C165.624 23.5453 164.683 22.9148 163.812 22.1949C163.593 21.9949 163.375 21.7949 163.158 21.5949C162.475 23.7218 161.133 25.5757 159.325 26.8879C157.473 28.2634 155.222 28.9941 152.915 28.9679C151.491 28.9988 150.076 28.7372 148.757 28.1991C147.438 27.6611 146.244 26.8581 145.248 25.8399C144.231 24.8399 143.43 23.6424 142.893 22.3211C142.357 20.9998 142.096 19.5827 142.128 18.157C142.092 16.7284 142.348 15.3074 142.881 13.9815C143.414 12.6556 144.213 11.4527 145.228 10.4469C146.23 9.43177 147.429 8.63291 148.752 8.09971C150.075 7.5665 151.493 7.3103 152.919 7.34696C154.449 7.3123 155.968 7.61879 157.366 8.24424C158.763 8.86969 160.003 9.79839 160.997 10.9629C161.284 11.3183 161.644 11.6073 162.053 11.8098C162.462 12.0123 162.911 12.1236 163.367 12.136C163.809 12.1378 164.247 12.0501 164.655 11.8782C165.062 11.7064 165.431 11.4539 165.738 11.136C166.061 10.835 166.318 10.4701 166.493 10.0646C166.668 9.65898 166.756 9.22155 166.753 8.77995C166.729 7.97677 166.401 7.21272 165.835 6.64195C164.243 4.78018 162.26 3.29242 160.027 2.28471C157.795 1.277 155.367 0.774128 152.918 0.811928C150.634 0.767025 148.366 1.19106 146.253 2.05778C144.139 2.9245 142.226 4.21548 140.632 5.85093C138.998 7.44927 137.709 9.36511 136.844 11.4804C135.978 13.5958 135.555 15.8658 135.6 18.1509C135.555 20.436 135.978 22.7061 136.844 24.8214C137.709 26.9368 138.998 28.8526 140.632 30.451C142.226 32.0862 144.139 33.377 146.253 34.2436C148.366 35.1101 150.634 35.534 152.918 35.4889C155.201 35.5344 157.469 35.1114 159.582 34.2461C161.695 33.3808 163.609 32.0915 165.204 30.4579C166.267 29.4037 167.191 28.2177 167.953 26.9289C168.714 28.2145 169.635 29.3981 170.695 30.451C172.289 32.0877 174.201 33.3801 176.314 34.2482C178.427 35.1163 180.696 35.5417 182.98 35.498C185.264 35.5431 187.532 35.1193 189.646 34.2528C191.759 33.3862 193.672 32.0953 195.267 30.4599C196.9 28.8615 198.189 26.9456 199.055 24.8303C199.92 22.715 200.343 20.4449 200.298 18.16C200.343 15.875 199.92 13.6049 199.055 11.4896C198.189 9.37428 196.9 7.45846 195.267 5.85996C193.672 4.22468 191.759 2.93376 189.646 2.06706C187.532 1.20035 185.264 0.776277 182.98 0.820961C180.696 0.776058 178.428 1.20003 176.315 2.06675C174.201 2.93347 172.288 4.22451 170.694 5.85996" fill="white"/>
<path d="M199.984 6.21393C199.579 5.98991 199.246 5.65613 199.023 5.25098C198.797 4.85508 198.678 4.40685 198.679 3.95093C198.68 3.49101 198.801 3.03934 199.031 2.64093C199.255 2.23529 199.59 1.90222 199.997 1.68097C200.389 1.46353 200.829 1.34895 201.277 1.34796C201.726 1.349 202.167 1.46357 202.559 1.68097C202.967 1.90186 203.303 2.23498 203.527 2.64093C203.757 3.03918 203.878 3.49095 203.879 3.95093C203.879 4.40702 203.76 4.85523 203.533 5.25098C203.309 5.65557 202.976 5.98917 202.572 6.21393C202.177 6.44201 201.728 6.56176 201.272 6.56097C200.818 6.56015 200.372 6.44048 199.979 6.21393H199.984ZM199.672 1.13397C199.166 1.40853 198.749 1.823 198.472 2.32794C198.187 2.82266 198.036 3.38312 198.034 3.95398C198.034 4.5199 198.183 5.07586 198.464 5.56696C198.743 6.07223 199.159 6.48828 199.664 6.76697C200.155 7.04748 200.71 7.19529 201.275 7.19592C201.841 7.19546 202.397 7.04765 202.888 6.76697C203.393 6.4878 203.809 6.07186 204.088 5.56696C204.369 5.07564 204.516 4.51977 204.517 3.95398C204.516 3.3831 204.365 2.82243 204.08 2.32794C203.802 1.82338 203.386 1.40903 202.88 1.13397C202.391 0.861426 201.84 0.718226 201.28 0.717957C200.72 0.717694 200.169 0.860928 199.68 1.13397" fill="white"/>
<path d="M200.509 2.79494H200.792C201.042 2.78281 201.293 2.79926 201.54 2.84395C201.633 2.87068 201.715 2.92683 201.774 3.00398C201.828 3.07765 201.857 3.16722 201.856 3.25893C201.857 3.35387 201.828 3.44679 201.773 3.52394C201.716 3.60162 201.634 3.65824 201.542 3.68495C201.294 3.72902 201.043 3.74509 200.792 3.73293H200.509V2.79494ZM199.809 2.24995V5.68593H200.509V4.27394H200.691C200.863 4.2668 201.033 4.31827 201.172 4.41994C201.375 4.62423 201.539 4.86426 201.655 5.12794L201.942 5.68593H202.804L202.399 4.99294C202.255 4.74694 202.171 4.60893 202.146 4.57393C202.077 4.47795 201.999 4.38948 201.912 4.30995C201.839 4.25439 201.758 4.21052 201.672 4.17995C201.931 4.15512 202.173 4.0397 202.356 3.85396C202.516 3.68124 202.602 3.45321 202.597 3.21797C202.599 3.04549 202.555 2.87562 202.469 2.72597C202.394 2.58831 202.282 2.47385 202.147 2.39497C201.979 2.31269 201.796 2.26602 201.609 2.25795C201.529 2.25195 201.163 2.24898 200.509 2.24898L199.809 2.24995Z" fill="white"/>
</svg>
